<?xml version="1.0" encoding="UTF-8" standalone="no"?>
<!-- Created with Inkscape (http://www.inkscape.org/) -->

<svg
   xmlns:dc="http://purl.org/dc/elements/1.1/"
   xmlns:cc="http://creativecommons.org/ns#"
   xmlns:rdf="http://www.w3.org/1999/02/22-rdf-syntax-ns#"
   xmlns:svg="http://www.w3.org/2000/svg"
   xmlns="http://www.w3.org/2000/svg"
   xmlns:sodipodi="http://sodipodi.sourceforge.net/DTD/sodipodi-0.dtd"
   xmlns:inkscape="http://www.inkscape.org/namespaces/inkscape"
   width="700"
   height="700"
   id="svg2"
   version="1.1"
   inkscape:version="0.48.2 r9819"
   sodipodi:docname="rawLogo.svg"
   inkscape:export-filename="C:\Users\Tom\Documents\CUCB Website\New Site\public_html\img\cucb_logo.png"
   inkscape:export-xdpi="19.285715"
   inkscape:export-ydpi="19.285715">
  <defs
     id="defs4">
    <filter
       id="filter3848"
       inkscape:label="Sharpen more"
       x="0"
       y="0"
       width="1"
       height="1"
       inkscape:menu="Image effects"
       inkscape:menu-tooltip="Sharpen edges and boundaries within the object, force=0.3"
       color-interpolation-filters="sRGB">
      <feConvolveMatrix
         id="feConvolveMatrix3850"
         order="3 3"
         kernelMatrix="0 -0.15 0 -0.15 1.6 -0.15 0 -0.15 0"
         divisor="1"
         in="SourceGraphic"
         targetX="1"
         targetY="1"
         result="fbSourceGraphic" />
      <feColorMatrix
         result="fbSourceGraphicAlpha"
         in="fbSourceGraphic"
         values="0 0 0 -1 0 0 0 0 -1 0 0 0 0 -1 0 0 0 0 1 0"
         id="feColorMatrix3852" />
      <feConvolveMatrix
         id="feConvolveMatrix3854"
         targetY="1"
         targetX="1"
         in="fbSourceGraphic"
         divisor="1"
         kernelMatrix="0 -0.3 0 -0.3 2.2 -0.3 0 -0.3 0"
         order="3 3"
         result="result1" />
      <feBlend
         id="feBlend3856"
         in2="fbSourceGraphic"
         mode="normal"
         result="result2" />
    </filter>
  </defs>
  <sodipodi:namedview
     id="base"
     pagecolor="#ffffff"
     bordercolor="#666666"
     borderopacity="1.0"
     inkscape:pageopacity="0.0"
     inkscape:pageshadow="2"
     inkscape:zoom="0.70710678"
     inkscape:cx="548.29509"
     inkscape:cy="286.62648"
     inkscape:document-units="px"
     inkscape:current-layer="layer3"
     showgrid="false"
     inkscape:window-width="1440"
     inkscape:window-height="840"
     inkscape:window-x="-8"
     inkscape:window-y="-8"
     inkscape:window-maximized="1"
     fit-margin-top="0"
     fit-margin-left="0"
     fit-margin-right="0"
     fit-margin-bottom="0" />
  <metadata
     id="metadata7">
    <rdf:RDF>
      <cc:Work
         rdf:about="">
        <dc:format>image/svg+xml</dc:format>
        <dc:type
           rdf:resource="http://purl.org/dc/dcmitype/StillImage" />
        <dc:title></dc:title>
      </cc:Work>
    </rdf:RDF>
  </metadata>
  <g
     inkscape:groupmode="layer"
     id="layer3"
     inkscape:label="Circle"
     transform="translate(-67.193008,-112.33249)" />
  <g
     inkscape:label="Layer 1"
     inkscape:groupmode="layer"
     id="layer1"
     transform="translate(-23.898538,-240.86795)">
    <g
       id="g3869"
       transform="matrix(1.3337544,0,0,1.3337544,-32.638345,-251.84028)">
      <path
         style="fill:#000000"
         d="m 147.58338,846.89546 c -10.46216,-0.41154 -19.91298,-1.31985 -23.5,-2.25857 -3.3,-0.86361 -8.25,-1.86104 -11,-2.21651 -2.75,-0.35548 -9.05,-1.75093 -13.999995,-3.10101 -4.95,-1.35008 -10.754885,-2.92842 -12.899745,-3.50743 -6.05708,-1.6351 -15.036205,-9.41248 -18.147225,-17.18367 -1.41772,-3.54141 -1.228199,-8.34512 -1.171874,-10.10955 0.167183,-5.23715 8.183829,-34.48495 14.519349,-50.5895 14.080985,-35.79311 38.85109,-69.929 69.25042,-95.43456 14.54817,-12.20616 34.2706,-25.32321 42.44534,-28.22966 2.19796,-0.78147 5.4245,-2.80513 7.17011,-4.49704 l 3.17382,-3.07619 -0.52102,-14.63128 c -0.28656,-8.0472 -0.0534,-18.00627 0.51814,-22.13127 3.23391,-23.34014 5.3798,-36.05372 6.82803,-40.4534 0.89678,-2.72437 2.42378,-7.89937 3.39336,-11.5 3.61628,-13.42954 14.26685,-38.57502 20.35052,-48.0466 1.23645,-1.925 3.97456,-6.425 6.0847,-10 7.27864,-12.3315 20.90711,-29.36613 34.05904,-42.5714 7.25542,-7.28485 14.71163,-14.07324 16.56935,-15.08529 2.67576,-1.45771 5.17915,-5.94919 13.56228,-5.95047 10.12703,-0.002 13.68419,5.52343 14.52956,6.31192 1.40578,1.31118 25.63626,23.8209 35.17028,35.79524 18.94117,23.78934 37.22296,58.74431 42.62526,81.5 0.7181,3.025 1.9135,6.95708 2.6564,8.73796 0.7429,1.78088 1.815,6.73088 2.3826,11 0.5676,4.26912 1.9465,12.26204 3.0644,17.76204 1.6381,8.05969 2.0341,13.86603 2.0411,29.92482 l 0.01,19.92483 2.7619,2.57517 c 1.519,1.41635 4.5199,3.19491 6.6686,3.95235 7.4842,2.63831 26.5373,15.05366 40.9519,26.68499 16.4754,13.2942 28.273,25.8738 43.561,46.44828 5.5607,7.48348 13.8938,20.59428 13.8938,21.85963 0,0.36611 1.05,2.23262 2.3334,4.1478 3.9116,5.83717 15.2611,32.05475 16.2259,37.48213 0.3911,2.2 1.5127,5.59593 2.4924,7.54651 0.9797,1.95059 2.0766,5.32559 2.4375,7.5 0.3609,2.17442 1.578,8.1115 2.7045,13.19351 1.5234,7.09981 2.82792,17.44964 1.38505,20.79165 -1.1607,4.57299 -5.78069,7.90735 -8.47839,10.45159 -4.4829,4.22794 -9.42016,5.59158 -15.10036,6.48428 -2.475,0.38897 -7.875,1.74766 -12,3.0193 -8.146,2.51121 -23.2759,5.22087 -37.5,6.71599 -10.9174,1.14754 -54.0458,0.31612 -61,-1.17595 -2.75,-0.59002 -9.725,-1.95224 -15.5,-3.02714 -10.88325,-2.02571 -25.47242,-6.19381 -35.00003,-9.99946 -10.88949,-4.34947 -32.66328,-15.41034 -40.65449,-20.65188 -6.45613,-4.23466 -8.99475,-5.3484 -12.19098,-5.3484 -2.22028,0 -4.33542,0.48308 -4.70033,1.0735 -0.3649,0.59043 -3.71732,3.03098 -7.44982,5.42345 -14.02299,8.98852 -36.15818,19.24682 -50.84279,23.56253 -3.48592,1.02448 -8.66092,2.72255 -11.5,3.77347 -2.83908,1.05093 -7.86196,2.22544 -11.16196,2.61002 -3.3,0.38459 -8.51219,1.33506 -11.58265,2.11216 -5.14738,1.30274 -13.64062,1.9916 -34.41735,2.7915 -4.4,0.16939 -15.875,-0.002 -25.5,-0.38039 z m 50.25775,-32.51006 c 7.01676,-0.7897 14.34262,-2.09802 16.2797,-2.90738 1.93707,-0.80936 6.29661,-1.97471 9.68787,-2.58966 3.39127,-0.61495 7.7654,-1.93269 9.72031,-2.92831 1.9549,-0.99561 5.87803,-2.49906 8.71807,-3.34099 2.84003,-0.84193 6.89003,-2.45262 9,-3.5793 2.10996,-1.12669 8.21294,-4.09677 13.56217,-6.60019 5.34923,-2.50341 10.18673,-5.41278 10.75,-6.46526 2.34739,-4.38613 0.48787,-8.7672 -5.54697,-13.06882 -5.36136,-3.82156 -23.33797,-27.06199 -32.08214,-41.47627 -6.84434,-11.28251 -19.34676,-37.29643 -19.34676,-40.25502 0,-0.55181 -1.08522,-3.42017 -2.41159,-6.37414 -1.32638,-2.95396 -2.7192,-7.84584 -3.09517,-10.87084 -0.95479,-7.68216 -2.63622,-10 -7.25434,-10 -7.12325,0 -30.90841,17.55976 -50.26355,37.10785 -25.25248,25.50422 -40.89415,52.30784 -52.02635,89.15258 -1.62195,5.36823 -2.949,10.80229 -2.949,12.07568 0,3.21627 3.74647,6.37621 8.5,7.1693 2.2,0.36705 6.475,1.47434 9.5,2.46065 4.68887,1.52882 15.43568,2.85723 36,4.44993 7.44137,0.57634 29.67241,-0.43085 43.25775,-1.95981 z m 269.46245,0.0809 c 9.6067,-0.85184 18.9255,-2.27385 22.8553,-3.48765 3.6493,-1.12716 7.7272,-2.04939 9.0619,-2.04939 1.3348,0 3.9714,-0.64535 5.8591,-1.4341 4.624,-1.93203 5.2516,-4.9786 2.6405,-12.81814 -1.1445,-3.43627 -2.7339,-8.49776 -3.532,-11.24776 -12.501,-43.07375 -44.7686,-84.94741 -87.397,-113.41488 -13.6902,-9.14239 -18.0682,-7.97962 -20.2,5.36498 -0.6104,3.82055 -2.4368,9.97016 -4.0589,13.66579 -1.622,3.69564 -2.9491,7.23325 -2.9491,7.86136 0,1.33048 -12.9678,27.86807 -16.13682,33.02275 -10.56529,17.18531 -21.79501,32.0304 -31.57288,41.73765 -8.37417,8.31368 -9.30691,11.48892 -4.64428,15.8101 1.45532,1.34874 3.0302,2.45225 3.49975,2.45225 0.46955,0 6.36634,2.62569 13.10398,5.83486 6.73764,3.20917 13.58571,6.16733 15.21794,6.57369 1.63223,0.40635 5.23223,1.78429 8,3.06208 2.76777,1.27778 7.28231,2.61812 10.03231,2.97853 2.75,0.36041 7.7943,1.56243 11.2096,2.67116 7.0345,2.28366 27.8855,4.5994 42.7904,4.75236 5.5,0.0564 17.2991,-0.5446 26.2202,-1.33564 z M 311.42536,758.17922 c 5.19389,-4.9706 16.77296,-18.59666 23.05237,-27.12765 14.6452,-19.89649 27.45705,-46.61036 33.63033,-70.12235 2.04422,-7.78574 1.84539,-9.78377 -1.28512,-12.91428 -2.23149,-2.2315 -4.00723,-2.88818 -9.26714,-3.42707 -3.57869,-0.36665 -9.64899,-1.60273 -13.48956,-2.74685 -5.94363,-1.77063 -10.63748,-2.16202 -31.53921,-2.62986 -25.56539,-0.57223 -39.93748,0.39332 -47.95379,3.22164 -2.36938,0.83596 -7.9358,1.92581 -12.36983,2.42189 -10.56127,1.18159 -12.11345,2.80305 -11.27956,11.78302 0.31709,3.41467 1.44825,7.9172 2.51368,10.00562 1.06543,2.08843 2.44604,5.81961 3.06801,8.29151 1.41421,5.62051 4.6636,13.15645 12.28638,28.49438 9.63698,19.39076 15.93046,27.98727 39.35023,53.75 4.36148,4.7978 8.95357,5.14351 13.28321,1 z m -64.7191,-144.16328 c 2.40742,-1.05231 7.97712,-2.44263 12.37712,-3.08961 4.4,-0.64697 10.925,-1.89482 14.5,-2.77299 9.6184,-2.36269 50.39763,-2.38164 61.5,-0.0286 4.4,0.93254 11.49292,2.16627 15.76204,2.74161 4.26912,0.57534 9.38658,1.72485 11.37212,2.55446 4.68428,1.95722 9.77646,1.92347 11.4357,-0.0758 1.52881,-1.8421 1.54363,-5.64427 0.0991,-25.41582 -0.58267,-7.975 -1.74852,-16.43922 -2.59076,-18.80938 -0.84224,-2.37016 -2.18872,-8.07556 -2.99217,-12.67865 -0.80346,-4.6031 -2.1404,-9.6834 -2.97098,-11.28956 -0.83058,-1.60616 -2.05736,-5.12577 -2.72618,-7.82135 -1.18556,-4.77802 -3.06663,-9.01521 -10.83271,-24.40103 -8.09139,-16.03031 -15.08874,-26.42141 -27.60932,-41 -16.9754,-19.76566 -18.62498,-20.74469 -24.85237,-14.75 -7.22209,6.9522 -18.9064,20.24817 -25.09123,28.55214 -6.49739,8.72363 -18.93363,30.48205 -21.22875,37.1418 -0.67403,1.95584 -2.09783,5.35606 -3.164,7.55606 -3.0966,6.38971 -7.01834,19.18975 -9.19156,30 -3.9534,19.66547 -4.73633,25.18011 -5.43688,38.29523 -0.63689,11.92348 -0.52764,13.49692 1.05888,15.25 2.22636,2.4601 5.02367,2.47107 10.58195,0.0415 z"
         id="path3871"
         inkscape:connector-curvature="0"
         sodipodi:nodetypes="csssssssssscsssssssscsscssscccssssssssccsssssscsscssssssccssssssssssssssssssssssssssssccssssssssssssssssssssssssssscsssssssssssssssssssscc"
         inkscape:transform-center-y="-76.363961" />
    </g>
  </g>
</svg>
